<svg id="_eg2jaknk8_1" data-name=" eg2jaknk8 1" xmlns="http://www.w3.org/2000/svg" viewBox="0 0 306.71 220"><defs><style>.cls-1,.cls-4{fill:#88bfcb;}.cls-2{fill:#3a5eff;}.cls-3{fill:#40508b;}.cls-4{font-size:83px;font-family:Unispace-Bold, Unispace;font-weight:700;}</style></defs><path id="_eg2jaknk8_52" data-name=" eg2jaknk8 52" class="cls-1" d="M176.13,0,156,21,135.79,0H74.1l-14,112.71h44.09l33.22-32.23h37.18l33.22,32.23h44.09L237.83,0ZM213.5,98.87,180.09,66.64H131.84L98.42,98.87H75.88L86.36,13.64h43.5L156,40.93l26.1-27.09h43.51l10.48,85.23Z"/><path id="_eg2jaknk8_53" data-name=" eg2jaknk8 53" class="cls-1" d="M114.24,28.67H100.4v9.89H90.51V52.4h9.89v9.89h13.84V52.4h9.89V38.56h-9.89Z"/><path id="_eg2jaknk8_54" data-name=" eg2jaknk8 54" class="cls-2" d="M193.36,55.22l18.18-18.17,9.79,9.78L203.15,65Z"/><path id="_eg2jaknk8_55" data-name=" eg2jaknk8 55" class="cls-3" d="M180.3,42.31l18.18-18.17,9.79,9.78L190.09,52.1Z"/><text class="cls-4" transform="translate(0 199.83)">Czolko</text></svg>